solid exported
	facet normal 0 -1 0
		outer loop
			vertex 32.0228271484375 5.735591888427734 0
			vertex 36.022830963134766 5.735591888427734 0
			vertex 32.0228271484375 5.735591888427734 8
		endloop
	endfacet
	facet normal 0 -1 0
		outer loop
			vertex 32.0228271484375 5.735591888427734 8
			vertex 36.022830963134766 5.735591888427734 0
			vertex 36.022830963134766 5.735591888427734 8
		endloop
	endfacet
	facet normal -1 0 0
		outer loop
			vertex 32.0228271484375 11.735591888427734 0
			vertex 32.0228271484375 5.735591888427734 0
			vertex 32.0228271484375 11.735591888427734 8
		endloop
	endfacet
	facet normal -1 0 0
		outer loop
			vertex 32.0228271484375 11.735591888427734 8
			vertex 32.0228271484375 5.735591888427734 0
			vertex 32.0228271484375 5.735591888427734 8
		endloop
	endfacet
	facet normal 0 1 0
		outer loop
			vertex 36.022830963134766 11.735591888427734 0
			vertex 32.0228271484375 11.735591888427734 0
			vertex 36.022830963134766 11.735591888427734 8
		endloop
	endfacet
	facet normal 0 1 0
		outer loop
			vertex 36.022830963134766 11.735591888427734 8
			vertex 32.0228271484375 11.735591888427734 0
			vertex 32.0228271484375 11.735591888427734 8
		endloop
	endfacet
	facet normal 1 0 0
		outer loop
			vertex 36.022830963134766 5.735591888427734 0
			vertex 36.022830963134766 11.735591888427734 0
			vertex 36.022830963134766 5.735591888427734 8
		endloop
	endfacet
	facet normal 1 0 0
		outer loop
			vertex 36.022830963134766 5.735591888427734 8
			vertex 36.022830963134766 11.735591888427734 0
			vertex 36.022830963134766 11.735591888427734 8
		endloop
	endfacet
	facet normal 0 0 1
		outer loop
			vertex 36.022830963134766 11.735591888427734 8
			vertex 32.0228271484375 11.735591888427734 8
			vertex 36.022830963134766 5.735591888427734 8
		endloop
	endfacet
	facet normal 0 0 1
		outer loop
			vertex 36.022830963134766 5.735591888427734 8
			vertex 32.0228271484375 11.735591888427734 8
			vertex 32.0228271484375 5.735591888427734 8
		endloop
	endfacet
	facet normal 0 0 -1
		outer loop
			vertex 36.022830963134766 5.735591888427734 0
			vertex 32.0228271484375 5.735591888427734 0
			vertex 36.022830963134766 11.735591888427734 0
		endloop
	endfacet
	facet normal 0 0 -1
		outer loop
			vertex 36.022830963134766 11.735591888427734 0
			vertex 32.0228271484375 5.735591888427734 0
			vertex 32.0228271484375 11.735591888427734 0
		endloop
	endfacet
endsolid exported
