solid exported
	facet normal 0.9975638739931226 -0.06975899442963426 0
		outer loop
			vertex -27.099712371826172 14.853017807006836 8
			vertex -27.08024787902832 15.131362915039062 0
			vertex -27.08024787902832 15.131362915039062 8
		endloop
	endfacet
	facet normal 0.9975638906255413 0.06975875658319473 0
		outer loop
			vertex -27.08024787902832 15.131362915039062 8
			vertex -27.08024787902832 15.131362915039062 0
			vertex -27.099712371826172 15.409708976745605 0
		endloop
	endfacet
	facet normal 0.9975638906255413 0.06975875658319473 0
		outer loop
			vertex -27.08024787902832 15.131362915039062 8
			vertex -27.099712371826172 15.409708976745605 0
			vertex -27.099712371826172 15.409708976745605 8
		endloop
	endfacet
	facet normal 0.9781482434846643 0.20790866688973342 0
		outer loop
			vertex -27.099712371826172 15.409708976745605 8
			vertex -27.099712371826172 15.409708976745605 0
			vertex -27.157724380493164 15.682638168334961 0
		endloop
	endfacet
	facet normal 0.9781482434846643 0.20790866688973342 0
		outer loop
			vertex -27.099712371826172 15.409708976745605 8
			vertex -27.157724380493164 15.682638168334961 0
			vertex -27.157724380493164 15.682638168334961 8
		endloop
	endfacet
	facet normal 0.9396945896888508 0.34201473376084635 0
		outer loop
			vertex -27.157724380493164 15.682638168334961 8
			vertex -27.157724380493164 15.682638168334961 0
			vertex -27.253154754638672 15.944835662841797 0
		endloop
	endfacet
	facet normal 0.9396945896888508 0.34201473376084635 0
		outer loop
			vertex -27.157724380493164 15.682638168334961 8
			vertex -27.253154754638672 15.944835662841797 0
			vertex -27.253154754638672 15.944835662841797 8
		endloop
	endfacet
	facet normal 0.8829469707525726 0.4694727327959055 0
		outer loop
			vertex -27.253154754638672 15.944835662841797 8
			vertex -27.253154754638672 15.944835662841797 0
			vertex -27.3841495513916 16.191200256347656 0
		endloop
	endfacet
	facet normal 0.8829469707525726 0.4694727327959055 0
		outer loop
			vertex -27.253154754638672 15.944835662841797 8
			vertex -27.3841495513916 16.191200256347656 0
			vertex -27.3841495513916 16.191200256347656 8
		endloop
	endfacet
	facet normal 0.8090162183830617 0.5877863203521927 0
		outer loop
			vertex -27.3841495513916 16.191200256347656 8
			vertex -27.3841495513916 16.191200256347656 0
			vertex -27.548158645629883 16.41693878173828 0
		endloop
	endfacet
	facet normal 0.8090162183830617 0.5877863203521927 0
		outer loop
			vertex -27.3841495513916 16.191200256347656 8
			vertex -27.548158645629883 16.41693878173828 0
			vertex -27.548158645629883 16.41693878173828 8
		endloop
	endfacet
	facet normal 0.7193410339552159 0.6946570930093792 0
		outer loop
			vertex -27.548158645629883 16.41693878173828 8
			vertex -27.548158645629883 16.41693878173828 0
			vertex -27.741985321044922 16.617652893066406 0
		endloop
	endfacet
	facet normal 0.7193410339552159 0.6946570930093792 0
		outer loop
			vertex -27.548158645629883 16.41693878173828 8
			vertex -27.741985321044922 16.617652893066406 0
			vertex -27.741985321044922 16.617652893066406 8
		endloop
	endfacet
	facet normal 0.6156579703032206 0.78801349201782 0
		outer loop
			vertex -27.741985321044922 16.617652893066406 8
			vertex -27.741985321044922 16.617652893066406 0
			vertex -27.961862564086914 16.789438247680664 0
		endloop
	endfacet
	facet normal 0.6156579703032206 0.78801349201782 0
		outer loop
			vertex -27.741985321044922 16.617652893066406 8
			vertex -27.961862564086914 16.789438247680664 0
			vertex -27.961862564086914 16.789438247680664 8
		endloop
	endfacet
	facet normal 0.5000025346834449 0.8660239403793237 0
		outer loop
			vertex -27.961862564086914 16.789438247680664 8
			vertex -27.961862564086914 16.789438247680664 0
			vertex -28.20350456237793 16.928951263427734 0
		endloop
	endfacet
	facet normal 0.5000025346834449 0.8660239403793237 0
		outer loop
			vertex -27.961862564086914 16.789438247680664 8
			vertex -28.20350456237793 16.928951263427734 0
			vertex -28.20350456237793 16.928951263427734 8
		endloop
	endfacet
	facet normal 0.37460240206936884 0.9271855479696925 0
		outer loop
			vertex -28.20350456237793 16.928951263427734 8
			vertex -28.20350456237793 16.928951263427734 0
			vertex -28.462215423583984 17.033475875854492 0
		endloop
	endfacet
	facet normal 0.37460240206936884 0.9271855479696925 0
		outer loop
			vertex -28.20350456237793 16.928951263427734 8
			vertex -28.462215423583984 17.033475875854492 0
			vertex -28.462215423583984 17.033475875854492 8
		endloop
	endfacet
	facet normal 0.24192598416904856 0.9702947068720087 0
		outer loop
			vertex -28.462215423583984 17.033475875854492 8
			vertex -28.462215423583984 17.033475875854492 0
			vertex -28.73295021057129 17.10097885131836 0
		endloop
	endfacet
	facet normal 0.24192598416904856 0.9702947068720087 0
		outer loop
			vertex -28.462215423583984 17.033475875854492 8
			vertex -28.73295021057129 17.10097885131836 0
			vertex -28.73295021057129 17.10097885131836 8
		endloop
	endfacet
	facet normal 0.1045250145685017 0.9945222578351149 0
		outer loop
			vertex -28.73295021057129 17.10097885131836 8
			vertex -28.73295021057129 17.10097885131836 0
			vertex -29.010448455810547 17.130144119262695 0
		endloop
	endfacet
	facet normal 0.1045250145685017 0.9945222578351149 0
		outer loop
			vertex -28.73295021057129 17.10097885131836 8
			vertex -29.010448455810547 17.130144119262695 0
			vertex -29.010448455810547 17.130144119262695 8
		endloop
	endfacet
	facet normal -0.03489641467119611 0.9993909346412425 0
		outer loop
			vertex -29.010448455810547 17.130144119262695 8
			vertex -29.010448455810547 17.130144119262695 0
			vertex -29.289304733276367 17.120407104492188 0
		endloop
	endfacet
	facet normal -0.03489641467119611 0.9993909346412425 0
		outer loop
			vertex -29.010448455810547 17.130144119262695 8
			vertex -29.289304733276367 17.120407104492188 0
			vertex -29.289304733276367 17.120407104492188 8
		endloop
	endfacet
	facet normal -0.17364767741962597 0.9848078412191739 0
		outer loop
			vertex -29.289304733276367 17.120407104492188 8
			vertex -29.289304733276367 17.120407104492188 0
			vertex -29.5640926361084 17.07195472717285 0
		endloop
	endfacet
	facet normal -0.17364767741962597 0.9848078412191739 0
		outer loop
			vertex -29.289304733276367 17.120407104492188 8
			vertex -29.5640926361084 17.07195472717285 0
			vertex -29.5640926361084 17.07195472717285 8
		endloop
	endfacet
	facet normal -0.3090165162020365 0.9510566716628178 0
		outer loop
			vertex -29.5640926361084 17.07195472717285 8
			vertex -29.5640926361084 17.07195472717285 0
			vertex -29.8294620513916 16.98573112487793 0
		endloop
	endfacet
	facet normal -0.3090165162020365 0.9510566716628178 0
		outer loop
			vertex -29.5640926361084 17.07195472717285 8
			vertex -29.8294620513916 16.98573112487793 0
			vertex -29.8294620513916 16.98573112487793 8
		endloop
	endfacet
	facet normal -0.43837366521834875 0.8987928179747718 0
		outer loop
			vertex -29.8294620513916 16.98573112487793 8
			vertex -29.8294620513916 16.98573112487793 0
			vertex -30.080245971679688 16.863414764404297 0
		endloop
	endfacet
	facet normal -0.43837366521834875 0.8987928179747718 0
		outer loop
			vertex -29.8294620513916 16.98573112487793 8
			vertex -30.080245971679688 16.863414764404297 0
			vertex -30.080245971679688 16.863414764404297 8
		endloop
	endfacet
	facet normal -0.5591957556444449 0.8290356487324526 0
		outer loop
			vertex -30.080245971679688 16.863414764404297 8
			vertex -30.080245971679688 16.863414764404297 0
			vertex -30.311569213867188 16.70738410949707 0
		endloop
	endfacet
	facet normal -0.5591957556444449 0.8290356487324526 0
		outer loop
			vertex -30.080245971679688 16.863414764404297 8
			vertex -30.311569213867188 16.70738410949707 0
			vertex -30.311569213867188 16.70738410949707 8
		endloop
	endfacet
	facet normal -0.6691256002470186 0.7431493329702094 0
		outer loop
			vertex -30.311569213867188 16.70738410949707 8
			vertex -30.311569213867188 16.70738410949707 0
			vertex -30.51892852783203 16.520679473876953 0
		endloop
	endfacet
	facet normal -0.6691256002470186 0.7431493329702094 0
		outer loop
			vertex -30.311569213867188 16.70738410949707 8
			vertex -30.51892852783203 16.520679473876953 0
			vertex -30.51892852783203 16.520679473876953 8
		endloop
	endfacet
	facet normal -0.7660501657821196 0.6427807896205262 0
		outer loop
			vertex -30.51892852783203 16.520679473876953 8
			vertex -30.51892852783203 16.520679473876953 0
			vertex -30.698280334472656 16.30693244934082 0
		endloop
	endfacet
	facet normal -0.7660501657821196 0.6427807896205262 0
		outer loop
			vertex -30.51892852783203 16.520679473876953 8
			vertex -30.698280334472656 16.30693244934082 0
			vertex -30.698280334472656 16.30693244934082 8
		endloop
	endfacet
	facet normal -0.8480459205695096 0.5299227458841651 0
		outer loop
			vertex -30.698280334472656 16.30693244934082 8
			vertex -30.698280334472656 16.30693244934082 0
			vertex -30.846141815185547 16.0703067779541 0
		endloop
	endfacet
	facet normal -0.8480459205695096 0.5299227458841651 0
		outer loop
			vertex -30.698280334472656 16.30693244934082 8
			vertex -30.846141815185547 16.0703067779541 0
			vertex -30.846141815185547 16.0703067779541 8
		endloop
	endfacet
	facet normal -0.9135446885171353 0.40673837055548434 0
		outer loop
			vertex -30.846141815185547 16.0703067779541 8
			vertex -30.846141815185547 16.0703067779541 0
			vertex -30.959632873535156 15.81540298461914 0
		endloop
	endfacet
	facet normal -0.9135446885171353 0.40673837055548434 0
		outer loop
			vertex -30.846141815185547 16.0703067779541 8
			vertex -30.959632873535156 15.81540298461914 0
			vertex -30.959632873535156 15.81540298461914 8
		endloop
	endfacet
	facet normal -0.9612635005614905 0.2756310622703286 0
		outer loop
			vertex -30.959632873535156 15.81540298461914 8
			vertex -30.959632873535156 15.81540298461914 0
			vertex -31.036540985107422 15.547185897827148 0
		endloop
	endfacet
	facet normal -0.9612635005614905 0.2756310622703286 0
		outer loop
			vertex -30.959632873535156 15.81540298461914 8
			vertex -31.036540985107422 15.547185897827148 0
			vertex -31.036540985107422 15.547185897827148 8
		endloop
	endfacet
	facet normal -0.9902676811225904 0.13917585898455084 0
		outer loop
			vertex -31.036540985107422 15.547185897827148 8
			vertex -31.036540985107422 15.547185897827148 0
			vertex -31.075374603271484 15.270875930786133 0
		endloop
	endfacet
	facet normal -0.9902676811225904 0.13917585898455084 0
		outer loop
			vertex -31.036540985107422 15.547185897827148 8
			vertex -31.075374603271484 15.270875930786133 0
			vertex -31.075374603271484 15.270875930786133 8
		endloop
	endfacet
	facet normal -1 0 0
		outer loop
			vertex -31.075374603271484 15.270875930786133 8
			vertex -31.075374603271484 15.270875930786133 0
			vertex -31.075374603271484 14.991849899291992 0
		endloop
	endfacet
	facet normal -1 0 0
		outer loop
			vertex -31.075374603271484 15.270875930786133 8
			vertex -31.075374603271484 14.991849899291992 0
			vertex -31.075374603271484 14.991849899291992 8
		endloop
	endfacet
	facet normal -0.9902677473262135 -0.1391753879300025 0
		outer loop
			vertex -31.075374603271484 14.991849899291992 8
			vertex -31.075374603271484 14.991849899291992 0
			vertex -31.036540985107422 14.71553897857666 0
		endloop
	endfacet
	facet normal -0.9902677473262135 -0.1391753879300025 0
		outer loop
			vertex -31.075374603271484 14.991849899291992 8
			vertex -31.036540985107422 14.71553897857666 0
			vertex -31.036540985107422 14.71553897857666 8
		endloop
	endfacet
	facet normal -0.9612632408958084 -0.2756319678529452 0
		outer loop
			vertex -31.036540985107422 14.71553897857666 8
			vertex -31.036540985107422 14.71553897857666 0
			vertex -30.959632873535156 14.447322845458984 0
		endloop
	endfacet
	facet normal -0.9612632408958084 -0.2756319678529452 0
		outer loop
			vertex -31.036540985107422 14.71553897857666 8
			vertex -30.959632873535156 14.447322845458984 0
			vertex -30.959632873535156 14.447322845458984 8
		endloop
	endfacet
	facet normal -0.9135441230779421 -0.40673964054386674 0
		outer loop
			vertex -30.959632873535156 14.447322845458984 8
			vertex -30.959632873535156 14.447322845458984 0
			vertex -30.846141815185547 14.19242000579834 0
		endloop
	endfacet
	facet normal -0.9135441230779421 -0.40673964054386674 0
		outer loop
			vertex -30.959632873535156 14.447322845458984 8
			vertex -30.846141815185547 14.19242000579834 0
			vertex -30.846141815185547 14.19242000579834 8
		endloop
	endfacet
	facet normal -0.8480478401615407 -0.5299196739104389 0
		outer loop
			vertex -30.846141815185547 14.19242000579834 8
			vertex -30.846141815185547 14.19242000579834 0
			vertex -30.698280334472656 13.955792427062988 0
		endloop
	endfacet
	facet normal -0.8480478401615407 -0.5299196739104389 0
		outer loop
			vertex -30.846141815185547 14.19242000579834 8
			vertex -30.698280334472656 13.955792427062988 0
			vertex -30.698280334472656 13.955792427062988 8
		endloop
	endfacet
	facet normal -0.7660487536195272 -0.6427824725970435 0
		outer loop
			vertex -30.698280334472656 13.955792427062988 8
			vertex -30.698280334472656 13.955792427062988 0
			vertex -30.51892852783203 13.742046356201172 0
		endloop
	endfacet
	facet normal -0.7660487536195272 -0.6427824725970435 0
		outer loop
			vertex -30.698280334472656 13.955792427062988 8
			vertex -30.51892852783203 13.742046356201172 0
			vertex -30.51892852783203 13.742046356201172 8
		endloop
	endfacet
	facet normal -0.6691256002470186 -0.7431493329702094 0
		outer loop
			vertex -30.51892852783203 13.742046356201172 8
			vertex -30.51892852783203 13.742046356201172 0
			vertex -30.311569213867188 13.555341720581055 0
		endloop
	endfacet
	facet normal -0.6691256002470186 -0.7431493329702094 0
		outer loop
			vertex -30.51892852783203 13.742046356201172 8
			vertex -30.311569213867188 13.555341720581055 0
			vertex -30.311569213867188 13.555341720581055 8
		endloop
	endfacet
	facet normal -0.5591910574290998 -0.8290388177228648 0
		outer loop
			vertex -30.311569213867188 13.555341720581055 8
			vertex -30.311569213867188 13.555341720581055 0
			vertex -30.080245971679688 13.399312973022461 0
		endloop
	endfacet
	facet normal -0.5591910574290998 -0.8290388177228648 0
		outer loop
			vertex -30.311569213867188 13.555341720581055 8
			vertex -30.080245971679688 13.399312973022461 0
			vertex -30.080245971679688 13.399312973022461 8
		endloop
	endfacet
	facet normal -0.4383764262933499 -0.8987914712936874 0
		outer loop
			vertex -30.080245971679688 13.399312973022461 8
			vertex -30.080245971679688 13.399312973022461 0
			vertex -29.8294620513916 13.276995658874512 0
		endloop
	endfacet
	facet normal -0.4383764262933499 -0.8987914712936874 0
		outer loop
			vertex -30.080245971679688 13.399312973022461 8
			vertex -29.8294620513916 13.276995658874512 0
			vertex -29.8294620513916 13.276995658874512 8
		endloop
	endfacet
	facet normal -0.30901960769114395 -0.9510556671732795 0
		outer loop
			vertex -29.8294620513916 13.276995658874512 8
			vertex -29.8294620513916 13.276995658874512 0
			vertex -29.5640926361084 13.190771102905273 0
		endloop
	endfacet
	facet normal -0.30901960769114395 -0.9510556671732795 0
		outer loop
			vertex -29.8294620513916 13.276995658874512 8
			vertex -29.5640926361084 13.190771102905273 0
			vertex -29.5640926361084 13.190771102905273 8
		endloop
	endfacet
	facet normal -0.17364767741962597 -0.9848078412191739 0
		outer loop
			vertex -29.5640926361084 13.190771102905273 8
			vertex -29.5640926361084 13.190771102905273 0
			vertex -29.289304733276367 13.142318725585938 0
		endloop
	endfacet
	facet normal -0.17364767741962597 -0.9848078412191739 0
		outer loop
			vertex -29.5640926361084 13.190771102905273 8
			vertex -29.289304733276367 13.142318725585938 0
			vertex -29.289304733276367 13.142318725585938 8
		endloop
	endfacet
	facet normal -0.03489641467119611 -0.9993909346412425 0
		outer loop
			vertex -29.289304733276367 13.142318725585938 8
			vertex -29.289304733276367 13.142318725585938 0
			vertex -29.010448455810547 13.13258171081543 0
		endloop
	endfacet
	facet normal -0.03489641467119611 -0.9993909346412425 0
		outer loop
			vertex -29.289304733276367 13.142318725585938 8
			vertex -29.010448455810547 13.13258171081543 0
			vertex -29.010448455810547 13.13258171081543 8
		endloop
	endfacet
	facet normal 0.1045250145685017 -0.9945222578351149 0
		outer loop
			vertex -29.010448455810547 13.13258171081543 8
			vertex -29.010448455810547 13.13258171081543 0
			vertex -28.73295021057129 13.161746978759766 0
		endloop
	endfacet
	facet normal 0.1045250145685017 -0.9945222578351149 0
		outer loop
			vertex -29.010448455810547 13.13258171081543 8
			vertex -28.73295021057129 13.161746978759766 0
			vertex -28.73295021057129 13.161746978759766 8
		endloop
	endfacet
	facet normal 0.24192598416904856 -0.9702947068720087 0
		outer loop
			vertex -28.73295021057129 13.161746978759766 8
			vertex -28.73295021057129 13.161746978759766 0
			vertex -28.462215423583984 13.229249954223633 0
		endloop
	endfacet
	facet normal 0.24192598416904856 -0.9702947068720087 0
		outer loop
			vertex -28.73295021057129 13.161746978759766 8
			vertex -28.462215423583984 13.229249954223633 0
			vertex -28.462215423583984 13.229249954223633 8
		endloop
	endfacet
	facet normal 0.37460240206936884 -0.9271855479696925 0
		outer loop
			vertex -28.462215423583984 13.229249954223633 8
			vertex -28.462215423583984 13.229249954223633 0
			vertex -28.20350456237793 13.33377456665039 0
		endloop
	endfacet
	facet normal 0.37460240206936884 -0.9271855479696925 0
		outer loop
			vertex -28.462215423583984 13.229249954223633 8
			vertex -28.20350456237793 13.33377456665039 0
			vertex -28.20350456237793 13.33377456665039 8
		endloop
	endfacet
	facet normal 0.5000025346834449 -0.8660239403793237 0
		outer loop
			vertex -28.20350456237793 13.33377456665039 8
			vertex -28.20350456237793 13.33377456665039 0
			vertex -27.961862564086914 13.473287582397461 0
		endloop
	endfacet
	facet normal 0.5000025346834449 -0.8660239403793237 0
		outer loop
			vertex -28.20350456237793 13.33377456665039 8
			vertex -27.961862564086914 13.473287582397461 0
			vertex -27.961862564086914 13.473287582397461 8
		endloop
	endfacet
	facet normal 0.6156579703032206 -0.78801349201782 0
		outer loop
			vertex -27.961862564086914 13.473287582397461 8
			vertex -27.961862564086914 13.473287582397461 0
			vertex -27.741985321044922 13.645072937011719 0
		endloop
	endfacet
	facet normal 0.6156579703032206 -0.78801349201782 0
		outer loop
			vertex -27.961862564086914 13.473287582397461 8
			vertex -27.741985321044922 13.645072937011719 0
			vertex -27.741985321044922 13.645072937011719 8
		endloop
	endfacet
	facet normal 0.7193426832426956 -0.6946553851120706 0
		outer loop
			vertex -27.741985321044922 13.645072937011719 8
			vertex -27.741985321044922 13.645072937011719 0
			vertex -27.548158645629883 13.84578800201416 0
		endloop
	endfacet
	facet normal 0.7193426832426956 -0.6946553851120706 0
		outer loop
			vertex -27.741985321044922 13.645072937011719 8
			vertex -27.548158645629883 13.84578800201416 0
			vertex -27.548158645629883 13.84578800201416 8
		endloop
	endfacet
	facet normal 0.8090126758228666 -0.5877911962235618 0
		outer loop
			vertex -27.548158645629883 13.84578800201416 8
			vertex -27.548158645629883 13.84578800201416 0
			vertex -27.3841495513916 14.071523666381836 0
		endloop
	endfacet
	facet normal 0.8090126758228666 -0.5877911962235618 0
		outer loop
			vertex -27.548158645629883 13.84578800201416 8
			vertex -27.3841495513916 14.071523666381836 0
			vertex -27.3841495513916 14.071523666381836 8
		endloop
	endfacet
	facet normal 0.8829477240651099 -0.46947131602286724 0
		outer loop
			vertex -27.3841495513916 14.071523666381836 8
			vertex -27.3841495513916 14.071523666381836 0
			vertex -27.253154754638672 14.317889213562012 0
		endloop
	endfacet
	facet normal 0.8829477240651099 -0.46947131602286724 0
		outer loop
			vertex -27.3841495513916 14.071523666381836 8
			vertex -27.253154754638672 14.317889213562012 0
			vertex -27.253154754638672 14.317889213562012 8
		endloop
	endfacet
	facet normal 0.9396953892905677 -0.3420125368258429 0
		outer loop
			vertex -27.253154754638672 14.317889213562012 8
			vertex -27.253154754638672 14.317889213562012 0
			vertex -27.157724380493164 14.58008861541748 0
		endloop
	endfacet
	facet normal 0.9396953892905677 -0.3420125368258429 0
		outer loop
			vertex -27.253154754638672 14.317889213562012 8
			vertex -27.157724380493164 14.58008861541748 0
			vertex -27.157724380493164 14.58008861541748 8
		endloop
	endfacet
	facet normal 0.9781482434846643 -0.20790866688973342 0
		outer loop
			vertex -27.157724380493164 14.58008861541748 8
			vertex -27.157724380493164 14.58008861541748 0
			vertex -27.099712371826172 14.853017807006836 0
		endloop
	endfacet
	facet normal 0.9781482434846643 -0.20790866688973342 0
		outer loop
			vertex -27.157724380493164 14.58008861541748 8
			vertex -27.099712371826172 14.853017807006836 0
			vertex -27.099712371826172 14.853017807006836 8
		endloop
	endfacet
	facet normal 0.9975638739931226 -0.06975899442963426 0
		outer loop
			vertex -27.099712371826172 14.853017807006836 8
			vertex -27.099712371826172 14.853017807006836 0
			vertex -27.08024787902832 15.131362915039062 0
		endloop
	endfacet
	facet normal 0 0 1
		outer loop
			vertex -27.099712371826172 14.853017807006836 8
			vertex -27.08024787902832 15.131362915039062 8
			vertex -30.959632873535156 14.447322845458984 8
		endloop
	endfacet
	facet normal 0 0 1
		outer loop
			vertex -30.959632873535156 14.447322845458984 8
			vertex -27.08024787902832 15.131362915039062 8
			vertex -27.099712371826172 15.409708976745605 8
		endloop
	endfacet
	facet normal 0 0 1
		outer loop
			vertex -30.959632873535156 14.447322845458984 8
			vertex -27.099712371826172 15.409708976745605 8
			vertex -27.157724380493164 15.682638168334961 8
		endloop
	endfacet
	facet normal 0 0 1
		outer loop
			vertex -27.157724380493164 15.682638168334961 8
			vertex -27.253154754638672 15.944835662841797 8
			vertex -30.959632873535156 14.447322845458984 8
		endloop
	endfacet
	facet normal 0 0 1
		outer loop
			vertex -30.959632873535156 14.447322845458984 8
			vertex -27.253154754638672 15.944835662841797 8
			vertex -27.3841495513916 16.191200256347656 8
		endloop
	endfacet
	facet normal 0 0 1
		outer loop
			vertex -30.959632873535156 14.447322845458984 8
			vertex -27.3841495513916 16.191200256347656 8
			vertex -27.548158645629883 16.41693878173828 8
		endloop
	endfacet
	facet normal 0 0 1
		outer loop
			vertex -27.548158645629883 16.41693878173828 8
			vertex -27.741985321044922 16.617652893066406 8
			vertex -30.959632873535156 14.447322845458984 8
		endloop
	endfacet
	facet normal 0 0 1
		outer loop
			vertex -30.959632873535156 14.447322845458984 8
			vertex -27.741985321044922 16.617652893066406 8
			vertex -27.961862564086914 16.789438247680664 8
		endloop
	endfacet
	facet normal 0 0 1
		outer loop
			vertex -30.959632873535156 14.447322845458984 8
			vertex -27.961862564086914 16.789438247680664 8
			vertex -28.20350456237793 16.928951263427734 8
		endloop
	endfacet
	facet normal 0 0 1
		outer loop
			vertex -28.20350456237793 16.928951263427734 8
			vertex -28.462215423583984 17.033475875854492 8
			vertex -30.959632873535156 14.447322845458984 8
		endloop
	endfacet
	facet normal 0 0 1
		outer loop
			vertex -30.959632873535156 14.447322845458984 8
			vertex -28.462215423583984 17.033475875854492 8
			vertex -28.73295021057129 17.10097885131836 8
		endloop
	endfacet
	facet normal 0 0 1
		outer loop
			vertex -30.959632873535156 14.447322845458984 8
			vertex -28.73295021057129 17.10097885131836 8
			vertex -29.010448455810547 17.130144119262695 8
		endloop
	endfacet
	facet normal 0 0 1
		outer loop
			vertex -29.010448455810547 17.130144119262695 8
			vertex -29.289304733276367 17.120407104492188 8
			vertex -30.959632873535156 14.447322845458984 8
		endloop
	endfacet
	facet normal 0 0 1
		outer loop
			vertex -30.959632873535156 14.447322845458984 8
			vertex -29.289304733276367 17.120407104492188 8
			vertex -29.5640926361084 17.07195472717285 8
		endloop
	endfacet
	facet normal 0 0 1
		outer loop
			vertex -30.959632873535156 14.447322845458984 8
			vertex -29.5640926361084 17.07195472717285 8
			vertex -29.8294620513916 16.98573112487793 8
		endloop
	endfacet
	facet normal 0 0 1
		outer loop
			vertex -29.8294620513916 16.98573112487793 8
			vertex -30.080245971679688 16.863414764404297 8
			vertex -30.959632873535156 14.447322845458984 8
		endloop
	endfacet
	facet normal 0 0 1
		outer loop
			vertex -30.959632873535156 14.447322845458984 8
			vertex -30.080245971679688 16.863414764404297 8
			vertex -30.311569213867188 16.70738410949707 8
		endloop
	endfacet
	facet normal 0 0 1
		outer loop
			vertex -30.959632873535156 14.447322845458984 8
			vertex -30.311569213867188 16.70738410949707 8
			vertex -30.51892852783203 16.520679473876953 8
		endloop
	endfacet
	facet normal 0 0 1
		outer loop
			vertex -30.51892852783203 16.520679473876953 8
			vertex -30.698280334472656 16.30693244934082 8
			vertex -30.959632873535156 14.447322845458984 8
		endloop
	endfacet
	facet normal 0 0 1
		outer loop
			vertex -30.959632873535156 14.447322845458984 8
			vertex -30.698280334472656 16.30693244934082 8
			vertex -30.846141815185547 16.0703067779541 8
		endloop
	endfacet
	facet normal 0 0 1
		outer loop
			vertex -30.959632873535156 14.447322845458984 8
			vertex -30.846141815185547 16.0703067779541 8
			vertex -30.959632873535156 15.81540298461914 8
		endloop
	endfacet
	facet normal 0 0 1
		outer loop
			vertex -30.959632873535156 14.447322845458984 8
			vertex -30.959632873535156 15.81540298461914 8
			vertex -31.036540985107422 14.71553897857666 8
		endloop
	endfacet
	facet normal 0 0 1
		outer loop
			vertex -31.036540985107422 14.71553897857666 8
			vertex -30.959632873535156 15.81540298461914 8
			vertex -31.036540985107422 15.547185897827148 8
		endloop
	endfacet
	facet normal 0 0 1
		outer loop
			vertex -31.036540985107422 14.71553897857666 8
			vertex -31.036540985107422 15.547185897827148 8
			vertex -31.075374603271484 14.991849899291992 8
		endloop
	endfacet
	facet normal 0 0 1
		outer loop
			vertex -31.075374603271484 14.991849899291992 8
			vertex -31.036540985107422 15.547185897827148 8
			vertex -31.075374603271484 15.270875930786133 8
		endloop
	endfacet
	facet normal 0 0 1
		outer loop
			vertex -30.846141815185547 14.19242000579834 8
			vertex -27.253154754638672 14.317889213562012 8
			vertex -30.959632873535156 14.447322845458984 8
		endloop
	endfacet
	facet normal 0 0 1
		outer loop
			vertex -30.959632873535156 14.447322845458984 8
			vertex -27.253154754638672 14.317889213562012 8
			vertex -27.157724380493164 14.58008861541748 8
		endloop
	endfacet
	facet normal 0 0 1
		outer loop
			vertex -30.959632873535156 14.447322845458984 8
			vertex -27.157724380493164 14.58008861541748 8
			vertex -27.099712371826172 14.853017807006836 8
		endloop
	endfacet
	facet normal 0 0 1
		outer loop
			vertex -27.253154754638672 14.317889213562012 8
			vertex -30.846141815185547 14.19242000579834 8
			vertex -27.3841495513916 14.071523666381836 8
		endloop
	endfacet
	facet normal 0 0 1
		outer loop
			vertex -27.3841495513916 14.071523666381836 8
			vertex -30.846141815185547 14.19242000579834 8
			vertex -30.698280334472656 13.955792427062988 8
		endloop
	endfacet
	facet normal 0 0 1
		outer loop
			vertex -27.3841495513916 14.071523666381836 8
			vertex -30.698280334472656 13.955792427062988 8
			vertex -27.548158645629883 13.84578800201416 8
		endloop
	endfacet
	facet normal 0 0 1
		outer loop
			vertex -27.548158645629883 13.84578800201416 8
			vertex -30.698280334472656 13.955792427062988 8
			vertex -30.51892852783203 13.742046356201172 8
		endloop
	endfacet
	facet normal 0 0 1
		outer loop
			vertex -27.548158645629883 13.84578800201416 8
			vertex -30.51892852783203 13.742046356201172 8
			vertex -27.741985321044922 13.645072937011719 8
		endloop
	endfacet
	facet normal 0 0 1
		outer loop
			vertex -27.741985321044922 13.645072937011719 8
			vertex -30.51892852783203 13.742046356201172 8
			vertex -30.311569213867188 13.555341720581055 8
		endloop
	endfacet
	facet normal 0 0 1
		outer loop
			vertex -27.741985321044922 13.645072937011719 8
			vertex -30.311569213867188 13.555341720581055 8
			vertex -27.961862564086914 13.473287582397461 8
		endloop
	endfacet
	facet normal 0 0 1
		outer loop
			vertex -27.961862564086914 13.473287582397461 8
			vertex -30.311569213867188 13.555341720581055 8
			vertex -30.080245971679688 13.399312973022461 8
		endloop
	endfacet
	facet normal 0 0 1
		outer loop
			vertex -27.961862564086914 13.473287582397461 8
			vertex -30.080245971679688 13.399312973022461 8
			vertex -28.20350456237793 13.33377456665039 8
		endloop
	endfacet
	facet normal 0 0 1
		outer loop
			vertex -28.20350456237793 13.33377456665039 8
			vertex -30.080245971679688 13.399312973022461 8
			vertex -29.8294620513916 13.276995658874512 8
		endloop
	endfacet
	facet normal 0 0 1
		outer loop
			vertex -28.20350456237793 13.33377456665039 8
			vertex -29.8294620513916 13.276995658874512 8
			vertex -28.462215423583984 13.229249954223633 8
		endloop
	endfacet
	facet normal 0 0 1
		outer loop
			vertex -28.462215423583984 13.229249954223633 8
			vertex -29.8294620513916 13.276995658874512 8
			vertex -29.5640926361084 13.190771102905273 8
		endloop
	endfacet
	facet normal 0 0 1
		outer loop
			vertex -28.462215423583984 13.229249954223633 8
			vertex -29.5640926361084 13.190771102905273 8
			vertex -28.73295021057129 13.161746978759766 8
		endloop
	endfacet
	facet normal 0 0 1
		outer loop
			vertex -28.73295021057129 13.161746978759766 8
			vertex -29.5640926361084 13.190771102905273 8
			vertex -29.289304733276367 13.142318725585938 8
		endloop
	endfacet
	facet normal 0 0 1
		outer loop
			vertex -28.73295021057129 13.161746978759766 8
			vertex -29.289304733276367 13.142318725585938 8
			vertex -29.010448455810547 13.13258171081543 8
		endloop
	endfacet
	facet normal 0 0 -1
		outer loop
			vertex -27.099712371826172 15.409708976745605 0
			vertex -27.08024787902832 15.131362915039062 0
			vertex -30.959632873535156 14.447322845458984 0
		endloop
	endfacet
	facet normal 0 0 -1
		outer loop
			vertex -30.959632873535156 14.447322845458984 0
			vertex -27.08024787902832 15.131362915039062 0
			vertex -27.099712371826172 14.853017807006836 0
		endloop
	endfacet
	facet normal 0 0 -1
		outer loop
			vertex -30.959632873535156 14.447322845458984 0
			vertex -27.099712371826172 14.853017807006836 0
			vertex -27.157724380493164 14.58008861541748 0
		endloop
	endfacet
	facet normal 0 0 -1
		outer loop
			vertex -27.157724380493164 14.58008861541748 0
			vertex -27.253154754638672 14.317889213562012 0
			vertex -30.959632873535156 14.447322845458984 0
		endloop
	endfacet
	facet normal 0 0 -1
		outer loop
			vertex -30.959632873535156 14.447322845458984 0
			vertex -27.253154754638672 14.317889213562012 0
			vertex -30.846141815185547 14.19242000579834 0
		endloop
	endfacet
	facet normal 0 0 -1
		outer loop
			vertex -30.846141815185547 14.19242000579834 0
			vertex -27.253154754638672 14.317889213562012 0
			vertex -27.3841495513916 14.071523666381836 0
		endloop
	endfacet
	facet normal 0 0 -1
		outer loop
			vertex -30.846141815185547 14.19242000579834 0
			vertex -27.3841495513916 14.071523666381836 0
			vertex -30.698280334472656 13.955792427062988 0
		endloop
	endfacet
	facet normal 0 0 -1
		outer loop
			vertex -30.698280334472656 13.955792427062988 0
			vertex -27.3841495513916 14.071523666381836 0
			vertex -27.548158645629883 13.84578800201416 0
		endloop
	endfacet
	facet normal 0 0 -1
		outer loop
			vertex -30.698280334472656 13.955792427062988 0
			vertex -27.548158645629883 13.84578800201416 0
			vertex -30.51892852783203 13.742046356201172 0
		endloop
	endfacet
	facet normal 0 0 -1
		outer loop
			vertex -30.51892852783203 13.742046356201172 0
			vertex -27.548158645629883 13.84578800201416 0
			vertex -27.741985321044922 13.645072937011719 0
		endloop
	endfacet
	facet normal 0 0 -1
		outer loop
			vertex -30.51892852783203 13.742046356201172 0
			vertex -27.741985321044922 13.645072937011719 0
			vertex -30.311569213867188 13.555341720581055 0
		endloop
	endfacet
	facet normal 0 0 -1
		outer loop
			vertex -30.311569213867188 13.555341720581055 0
			vertex -27.741985321044922 13.645072937011719 0
			vertex -27.961862564086914 13.473287582397461 0
		endloop
	endfacet
	facet normal 0 0 -1
		outer loop
			vertex -30.311569213867188 13.555341720581055 0
			vertex -27.961862564086914 13.473287582397461 0
			vertex -30.080245971679688 13.399312973022461 0
		endloop
	endfacet
	facet normal 0 0 -1
		outer loop
			vertex -30.080245971679688 13.399312973022461 0
			vertex -27.961862564086914 13.473287582397461 0
			vertex -28.20350456237793 13.33377456665039 0
		endloop
	endfacet
	facet normal 0 0 -1
		outer loop
			vertex -30.080245971679688 13.399312973022461 0
			vertex -28.20350456237793 13.33377456665039 0
			vertex -29.8294620513916 13.276995658874512 0
		endloop
	endfacet
	facet normal 0 0 -1
		outer loop
			vertex -29.8294620513916 13.276995658874512 0
			vertex -28.20350456237793 13.33377456665039 0
			vertex -28.462215423583984 13.229249954223633 0
		endloop
	endfacet
	facet normal 0 0 -1
		outer loop
			vertex -29.8294620513916 13.276995658874512 0
			vertex -28.462215423583984 13.229249954223633 0
			vertex -29.5640926361084 13.190771102905273 0
		endloop
	endfacet
	facet normal 0 0 -1
		outer loop
			vertex -29.5640926361084 13.190771102905273 0
			vertex -28.462215423583984 13.229249954223633 0
			vertex -28.73295021057129 13.161746978759766 0
		endloop
	endfacet
	facet normal 0 0 -1
		outer loop
			vertex -29.5640926361084 13.190771102905273 0
			vertex -28.73295021057129 13.161746978759766 0
			vertex -29.289304733276367 13.142318725585938 0
		endloop
	endfacet
	facet normal 0 0 -1
		outer loop
			vertex -29.289304733276367 13.142318725585938 0
			vertex -28.73295021057129 13.161746978759766 0
			vertex -29.010448455810547 13.13258171081543 0
		endloop
	endfacet
	facet normal 0 0 -1
		outer loop
			vertex -31.036540985107422 14.71553897857666 0
			vertex -30.959632873535156 15.81540298461914 0
			vertex -30.959632873535156 14.447322845458984 0
		endloop
	endfacet
	facet normal 0 0 -1
		outer loop
			vertex -30.959632873535156 14.447322845458984 0
			vertex -30.959632873535156 15.81540298461914 0
			vertex -30.846141815185547 16.0703067779541 0
		endloop
	endfacet
	facet normal 0 0 -1
		outer loop
			vertex -30.959632873535156 14.447322845458984 0
			vertex -30.846141815185547 16.0703067779541 0
			vertex -30.698280334472656 16.30693244934082 0
		endloop
	endfacet
	facet normal 0 0 -1
		outer loop
			vertex -30.959632873535156 15.81540298461914 0
			vertex -31.036540985107422 14.71553897857666 0
			vertex -31.036540985107422 15.547185897827148 0
		endloop
	endfacet
	facet normal 0 0 -1
		outer loop
			vertex -31.036540985107422 15.547185897827148 0
			vertex -31.036540985107422 14.71553897857666 0
			vertex -31.075374603271484 14.991849899291992 0
		endloop
	endfacet
	facet normal 0 0 -1
		outer loop
			vertex -31.036540985107422 15.547185897827148 0
			vertex -31.075374603271484 14.991849899291992 0
			vertex -31.075374603271484 15.270875930786133 0
		endloop
	endfacet
	facet normal 0 0 -1
		outer loop
			vertex -30.698280334472656 16.30693244934082 0
			vertex -30.51892852783203 16.520679473876953 0
			vertex -30.959632873535156 14.447322845458984 0
		endloop
	endfacet
	facet normal 0 0 -1
		outer loop
			vertex -30.959632873535156 14.447322845458984 0
			vertex -30.51892852783203 16.520679473876953 0
			vertex -30.311569213867188 16.70738410949707 0
		endloop
	endfacet
	facet normal 0 0 -1
		outer loop
			vertex -30.959632873535156 14.447322845458984 0
			vertex -30.311569213867188 16.70738410949707 0
			vertex -30.080245971679688 16.863414764404297 0
		endloop
	endfacet
	facet normal 0 0 -1
		outer loop
			vertex -30.080245971679688 16.863414764404297 0
			vertex -29.8294620513916 16.98573112487793 0
			vertex -30.959632873535156 14.447322845458984 0
		endloop
	endfacet
	facet normal 0 0 -1
		outer loop
			vertex -30.959632873535156 14.447322845458984 0
			vertex -29.8294620513916 16.98573112487793 0
			vertex -29.5640926361084 17.07195472717285 0
		endloop
	endfacet
	facet normal 0 0 -1
		outer loop
			vertex -30.959632873535156 14.447322845458984 0
			vertex -29.5640926361084 17.07195472717285 0
			vertex -29.289304733276367 17.120407104492188 0
		endloop
	endfacet
	facet normal 0 0 -1
		outer loop
			vertex -29.289304733276367 17.120407104492188 0
			vertex -29.010448455810547 17.130144119262695 0
			vertex -30.959632873535156 14.447322845458984 0
		endloop
	endfacet
	facet normal 0 0 -1
		outer loop
			vertex -30.959632873535156 14.447322845458984 0
			vertex -29.010448455810547 17.130144119262695 0
			vertex -28.73295021057129 17.10097885131836 0
		endloop
	endfacet
	facet normal 0 0 -1
		outer loop
			vertex -30.959632873535156 14.447322845458984 0
			vertex -28.73295021057129 17.10097885131836 0
			vertex -28.462215423583984 17.033475875854492 0
		endloop
	endfacet
	facet normal 0 0 -1
		outer loop
			vertex -28.462215423583984 17.033475875854492 0
			vertex -28.20350456237793 16.928951263427734 0
			vertex -30.959632873535156 14.447322845458984 0
		endloop
	endfacet
	facet normal 0 0 -1
		outer loop
			vertex -30.959632873535156 14.447322845458984 0
			vertex -28.20350456237793 16.928951263427734 0
			vertex -27.961862564086914 16.789438247680664 0
		endloop
	endfacet
	facet normal 0 0 -1
		outer loop
			vertex -30.959632873535156 14.447322845458984 0
			vertex -27.961862564086914 16.789438247680664 0
			vertex -27.741985321044922 16.617652893066406 0
		endloop
	endfacet
	facet normal 0 0 -1
		outer loop
			vertex -27.741985321044922 16.617652893066406 0
			vertex -27.548158645629883 16.41693878173828 0
			vertex -30.959632873535156 14.447322845458984 0
		endloop
	endfacet
	facet normal 0 0 -1
		outer loop
			vertex -30.959632873535156 14.447322845458984 0
			vertex -27.548158645629883 16.41693878173828 0
			vertex -27.3841495513916 16.191200256347656 0
		endloop
	endfacet
	facet normal 0 0 -1
		outer loop
			vertex -30.959632873535156 14.447322845458984 0
			vertex -27.3841495513916 16.191200256347656 0
			vertex -27.253154754638672 15.944835662841797 0
		endloop
	endfacet
	facet normal 0 0 -1
		outer loop
			vertex -27.253154754638672 15.944835662841797 0
			vertex -27.157724380493164 15.682638168334961 0
			vertex -30.959632873535156 14.447322845458984 0
		endloop
	endfacet
	facet normal 0 0 -1
		outer loop
			vertex -30.959632873535156 14.447322845458984 0
			vertex -27.157724380493164 15.682638168334961 0
			vertex -27.099712371826172 15.409708976745605 0
		endloop
	endfacet
endsolid exported
