solid exported
	facet normal -1 0 0
		outer loop
			vertex -21.4698486328125 19.428668975830078 0
			vertex -21.4698486328125 14.428668022155762 0
			vertex -21.4698486328125 19.428668975830078 5
		endloop
	endfacet
	facet normal -1 0 0
		outer loop
			vertex -21.4698486328125 19.428668975830078 5
			vertex -21.4698486328125 14.428668022155762 0
			vertex -21.4698486328125 14.428668022155762 5
		endloop
	endfacet
	facet normal 0 1 0
		outer loop
			vertex -16.4698486328125 19.428668975830078 0
			vertex -21.4698486328125 19.428668975830078 0
			vertex -16.4698486328125 19.428668975830078 5
		endloop
	endfacet
	facet normal 0 1 0
		outer loop
			vertex -16.4698486328125 19.428668975830078 5
			vertex -21.4698486328125 19.428668975830078 0
			vertex -21.4698486328125 19.428668975830078 5
		endloop
	endfacet
	facet normal 1 0 0
		outer loop
			vertex -16.4698486328125 14.428668022155762 0
			vertex -16.4698486328125 19.428668975830078 0
			vertex -16.4698486328125 14.428668022155762 5
		endloop
	endfacet
	facet normal 1 0 0
		outer loop
			vertex -16.4698486328125 14.428668022155762 5
			vertex -16.4698486328125 19.428668975830078 0
			vertex -16.4698486328125 19.428668975830078 5
		endloop
	endfacet
	facet normal 0 1 0
		outer loop
			vertex -11.469849586486816 14.428668022155762 0
			vertex -16.4698486328125 14.428668022155762 0
			vertex -11.469849586486816 14.428668022155762 5
		endloop
	endfacet
	facet normal 0 1 0
		outer loop
			vertex -11.469849586486816 14.428668022155762 5
			vertex -16.4698486328125 14.428668022155762 0
			vertex -16.4698486328125 14.428668022155762 5
		endloop
	endfacet
	facet normal 1 0 0
		outer loop
			vertex -11.469849586486816 9.428668975830078 0
			vertex -11.469849586486816 14.428668022155762 0
			vertex -11.469849586486816 9.428668975830078 5
		endloop
	endfacet
	facet normal 1 0 0
		outer loop
			vertex -11.469849586486816 9.428668975830078 5
			vertex -11.469849586486816 14.428668022155762 0
			vertex -11.469849586486816 14.428668022155762 5
		endloop
	endfacet
	facet normal 0 -1 0
		outer loop
			vertex -16.4698486328125 9.428668975830078 0
			vertex -11.469849586486816 9.428668975830078 0
			vertex -16.4698486328125 9.428668975830078 5
		endloop
	endfacet
	facet normal 0 -1 0
		outer loop
			vertex -16.4698486328125 9.428668975830078 5
			vertex -11.469849586486816 9.428668975830078 0
			vertex -11.469849586486816 9.428668975830078 5
		endloop
	endfacet
	facet normal 1 0 0
		outer loop
			vertex -16.4698486328125 4.42866849899292 0
			vertex -16.4698486328125 9.428668975830078 0
			vertex -16.4698486328125 4.42866849899292 5
		endloop
	endfacet
	facet normal 1 0 0
		outer loop
			vertex -16.4698486328125 4.42866849899292 5
			vertex -16.4698486328125 9.428668975830078 0
			vertex -16.4698486328125 9.428668975830078 5
		endloop
	endfacet
	facet normal 0 -1 0
		outer loop
			vertex -21.4698486328125 4.42866849899292 0
			vertex -16.4698486328125 4.42866849899292 0
			vertex -21.4698486328125 4.42866849899292 5
		endloop
	endfacet
	facet normal 0 -1 0
		outer loop
			vertex -21.4698486328125 4.42866849899292 5
			vertex -16.4698486328125 4.42866849899292 0
			vertex -16.4698486328125 4.42866849899292 5
		endloop
	endfacet
	facet normal -1 0 0
		outer loop
			vertex -21.4698486328125 9.428668975830078 0
			vertex -21.4698486328125 4.42866849899292 0
			vertex -21.4698486328125 9.428668975830078 5
		endloop
	endfacet
	facet normal -1 0 0
		outer loop
			vertex -21.4698486328125 9.428668975830078 5
			vertex -21.4698486328125 4.42866849899292 0
			vertex -21.4698486328125 4.42866849899292 5
		endloop
	endfacet
	facet normal 0 -1 0
		outer loop
			vertex -26.4698486328125 9.428668975830078 0
			vertex -21.4698486328125 9.428668975830078 0
			vertex -26.4698486328125 9.428668975830078 5
		endloop
	endfacet
	facet normal 0 -1 0
		outer loop
			vertex -26.4698486328125 9.428668975830078 5
			vertex -21.4698486328125 9.428668975830078 0
			vertex -21.4698486328125 9.428668975830078 5
		endloop
	endfacet
	facet normal -1 0 0
		outer loop
			vertex -26.4698486328125 14.428668022155762 0
			vertex -26.4698486328125 9.428668975830078 0
			vertex -26.4698486328125 14.428668022155762 5
		endloop
	endfacet
	facet normal -1 0 0
		outer loop
			vertex -26.4698486328125 14.428668022155762 5
			vertex -26.4698486328125 9.428668975830078 0
			vertex -26.4698486328125 9.428668975830078 5
		endloop
	endfacet
	facet normal 0 1 0
		outer loop
			vertex -21.4698486328125 14.428668022155762 0
			vertex -26.4698486328125 14.428668022155762 0
			vertex -21.4698486328125 14.428668022155762 5
		endloop
	endfacet
	facet normal 0 1 0
		outer loop
			vertex -21.4698486328125 14.428668022155762 5
			vertex -26.4698486328125 14.428668022155762 0
			vertex -26.4698486328125 14.428668022155762 5
		endloop
	endfacet
	facet normal 0 0 1
		outer loop
			vertex -26.4698486328125 14.428668022155762 5
			vertex -21.4698486328125 9.428668975830078 5
			vertex -21.4698486328125 14.428668022155762 5
		endloop
	endfacet
	facet normal 0 0 1
		outer loop
			vertex -21.4698486328125 14.428668022155762 5
			vertex -21.4698486328125 9.428668975830078 5
			vertex -16.4698486328125 9.428668975830078 5
		endloop
	endfacet
	facet normal 0 0 1
		outer loop
			vertex -21.4698486328125 14.428668022155762 5
			vertex -16.4698486328125 9.428668975830078 5
			vertex -16.4698486328125 14.428668022155762 5
		endloop
	endfacet
	facet normal 0 0 1
		outer loop
			vertex -16.4698486328125 14.428668022155762 5
			vertex -16.4698486328125 9.428668975830078 5
			vertex -11.469849586486816 9.428668975830078 5
		endloop
	endfacet
	facet normal 0 0 1
		outer loop
			vertex -16.4698486328125 14.428668022155762 5
			vertex -11.469849586486816 9.428668975830078 5
			vertex -11.469849586486816 14.428668022155762 5
		endloop
	endfacet
	facet normal 0 0 1
		outer loop
			vertex -26.4698486328125 14.428668022155762 5
			vertex -26.4698486328125 9.428668975830078 5
			vertex -21.4698486328125 9.428668975830078 5
		endloop
	endfacet
	facet normal 0 0 1
		outer loop
			vertex -21.4698486328125 4.42866849899292 5
			vertex -16.4698486328125 4.42866849899292 5
			vertex -21.4698486328125 9.428668975830078 5
		endloop
	endfacet
	facet normal 0 0 1
		outer loop
			vertex -21.4698486328125 9.428668975830078 5
			vertex -16.4698486328125 4.42866849899292 5
			vertex -16.4698486328125 9.428668975830078 5
		endloop
	endfacet
	facet normal 0 0 1
		outer loop
			vertex -16.4698486328125 19.428668975830078 5
			vertex -21.4698486328125 19.428668975830078 5
			vertex -16.4698486328125 14.428668022155762 5
		endloop
	endfacet
	facet normal 0 0 1
		outer loop
			vertex -16.4698486328125 14.428668022155762 5
			vertex -21.4698486328125 19.428668975830078 5
			vertex -21.4698486328125 14.428668022155762 5
		endloop
	endfacet
	facet normal 0 0 -1
		outer loop
			vertex -26.4698486328125 14.428668022155762 0
			vertex -21.4698486328125 14.428668022155762 0
			vertex -26.4698486328125 9.428668975830078 0
		endloop
	endfacet
	facet normal 0 0 -1
		outer loop
			vertex -26.4698486328125 9.428668975830078 0
			vertex -21.4698486328125 14.428668022155762 0
			vertex -21.4698486328125 9.428668975830078 0
		endloop
	endfacet
	facet normal 0 0 -1
		outer loop
			vertex -21.4698486328125 9.428668975830078 0
			vertex -21.4698486328125 14.428668022155762 0
			vertex -16.4698486328125 14.428668022155762 0
		endloop
	endfacet
	facet normal 0 0 -1
		outer loop
			vertex -21.4698486328125 9.428668975830078 0
			vertex -16.4698486328125 14.428668022155762 0
			vertex -16.4698486328125 9.428668975830078 0
		endloop
	endfacet
	facet normal 0 0 -1
		outer loop
			vertex -16.4698486328125 9.428668975830078 0
			vertex -16.4698486328125 14.428668022155762 0
			vertex -11.469849586486816 14.428668022155762 0
		endloop
	endfacet
	facet normal 0 0 -1
		outer loop
			vertex -16.4698486328125 9.428668975830078 0
			vertex -11.469849586486816 14.428668022155762 0
			vertex -11.469849586486816 9.428668975830078 0
		endloop
	endfacet
	facet normal 0 0 -1
		outer loop
			vertex -21.4698486328125 19.428668975830078 0
			vertex -16.4698486328125 19.428668975830078 0
			vertex -21.4698486328125 14.428668022155762 0
		endloop
	endfacet
	facet normal 0 0 -1
		outer loop
			vertex -21.4698486328125 14.428668022155762 0
			vertex -16.4698486328125 19.428668975830078 0
			vertex -16.4698486328125 14.428668022155762 0
		endloop
	endfacet
	facet normal 0 0 -1
		outer loop
			vertex -16.4698486328125 4.42866849899292 0
			vertex -21.4698486328125 4.42866849899292 0
			vertex -16.4698486328125 9.428668975830078 0
		endloop
	endfacet
	facet normal 0 0 -1
		outer loop
			vertex -16.4698486328125 9.428668975830078 0
			vertex -21.4698486328125 4.42866849899292 0
			vertex -21.4698486328125 9.428668975830078 0
		endloop
	endfacet
endsolid exported
