solid exported
	facet normal -1 0 0
		outer loop
			vertex -23.616436004638672 15.11446475982666 0
			vertex -23.616436004638672 10.11446475982666 0
			vertex -23.616436004638672 15.11446475982666 5
		endloop
	endfacet
	facet normal -1 0 0
		outer loop
			vertex -23.616436004638672 15.11446475982666 5
			vertex -23.616436004638672 10.11446475982666 0
			vertex -23.616436004638672 10.11446475982666 5
		endloop
	endfacet
	facet normal 0 1 0
		outer loop
			vertex -18.616436004638672 15.11446475982666 0
			vertex -23.616436004638672 15.11446475982666 0
			vertex -18.616436004638672 15.11446475982666 5
		endloop
	endfacet
	facet normal 0 1 0
		outer loop
			vertex -18.616436004638672 15.11446475982666 5
			vertex -23.616436004638672 15.11446475982666 0
			vertex -23.616436004638672 15.11446475982666 5
		endloop
	endfacet
	facet normal 0.9987956320310918 0.04906409517775731 0
		outer loop
			vertex -13.616436004638672 10.11446475982666 5
			vertex -13.616436004638672 10.11446475982666 0
			vertex -13.640510559082031 10.604549407958984 5
		endloop
	endfacet
	facet normal 0.9987956320310918 0.04906409517775731 0
		outer loop
			vertex -13.640510559082031 10.604549407958984 5
			vertex -13.616436004638672 10.11446475982666 0
			vertex -13.640510559082031 10.604549407958984 0
		endloop
	endfacet
	facet normal 0.9891761462946574 0.14673292609925936 0
		outer loop
			vertex -13.640510559082031 10.604549407958984 5
			vertex -13.640510559082031 10.604549407958984 0
			vertex -13.712509155273438 11.089916229248047 5
		endloop
	endfacet
	facet normal 0.9891761462946574 0.14673292609925936 0
		outer loop
			vertex -13.712509155273438 11.089916229248047 5
			vertex -13.640510559082031 10.604549407958984 0
			vertex -13.712509155273438 11.089916229248047 0
		endloop
	endfacet
	facet normal 0.9700312705729877 0.24298011052461796 0
		outer loop
			vertex -13.712509155273438 11.089916229248047 5
			vertex -13.712509155273438 11.089916229248047 0
			vertex -13.831733703613281 11.565887451171875 5
		endloop
	endfacet
	facet normal 0.9700312705729877 0.24298011052461796 0
		outer loop
			vertex -13.831733703613281 11.565887451171875 5
			vertex -13.712509155273438 11.089916229248047 0
			vertex -13.831733703613281 11.565887451171875 0
		endloop
	endfacet
	facet normal 0.9415440481742406 0.33688990092857224 0
		outer loop
			vertex -13.831733703613281 11.565887451171875 5
			vertex -13.831733703613281 11.565887451171875 0
			vertex -13.997037887573242 12.027881622314453 5
		endloop
	endfacet
	facet normal 0.9415440481742406 0.33688990092857224 0
		outer loop
			vertex -13.997037887573242 12.027881622314453 5
			vertex -13.831733703613281 11.565887451171875 0
			vertex -13.997037887573242 12.027881622314453 0
		endloop
	endfacet
	facet normal 0.9039893425597892 0.42755498890589505 0
		outer loop
			vertex -13.997037887573242 12.027881622314453 5
			vertex -13.997037887573242 12.027881622314453 0
			vertex -14.206829071044922 12.471447944641113 5
		endloop
	endfacet
	facet normal 0.9039893425597892 0.42755498890589505 0
		outer loop
			vertex -14.206829071044922 12.471447944641113 5
			vertex -13.997037887573242 12.027881622314453 0
			vertex -14.206829071044922 12.471447944641113 0
		endloop
	endfacet
	facet normal 0.8577291533512873 0.5141018376657331 0
		outer loop
			vertex -14.206829071044922 12.471447944641113 5
			vertex -14.206829071044922 12.471447944641113 0
			vertex -14.459086418151855 12.892314910888672 5
		endloop
	endfacet
	facet normal 0.8577291533512873 0.5141018376657331 0
		outer loop
			vertex -14.459086418151855 12.892314910888672 5
			vertex -14.206829071044922 12.471447944641113 0
			vertex -14.459086418151855 12.892314910888672 0
		endloop
	endfacet
	facet normal 0.8032070709254991 0.5956999254786596 0
		outer loop
			vertex -14.459086418151855 12.892314910888672 5
			vertex -14.459086418151855 12.892314910888672 0
			vertex -14.751382827758789 13.286430358886719 5
		endloop
	endfacet
	facet normal 0.8032070709254991 0.5956999254786596 0
		outer loop
			vertex -14.751382827758789 13.286430358886719 5
			vertex -14.459086418151855 12.892314910888672 0
			vertex -14.751382827758789 13.286430358886719 0
		endloop
	endfacet
	facet normal 0.7409510465841848 0.6715590417571649 0
		outer loop
			vertex -14.751382827758789 13.286430358886719 5
			vertex -14.751382827758789 13.286430358886719 0
			vertex -15.080901145935059 13.64999771118164 5
		endloop
	endfacet
	facet normal 0.7409510465841848 0.6715590417571649 0
		outer loop
			vertex -15.080901145935059 13.64999771118164 5
			vertex -14.751382827758789 13.286430358886719 0
			vertex -15.080901145935059 13.64999771118164 0
		endloop
	endfacet
	facet normal 0.6715601088025858 0.7409500794689609 0
		outer loop
			vertex -15.080901145935059 13.64999771118164 5
			vertex -15.080901145935059 13.64999771118164 0
			vertex -15.44446849822998 13.979516983032227 5
		endloop
	endfacet
	facet normal 0.6715601088025858 0.7409500794689609 0
		outer loop
			vertex -15.44446849822998 13.979516983032227 5
			vertex -15.080901145935059 13.64999771118164 0
			vertex -15.44446849822998 13.979516983032227 0
		endloop
	endfacet
	facet normal 0.5956986715871776 0.8032080008747873 0
		outer loop
			vertex -15.44446849822998 13.979516983032227 5
			vertex -15.44446849822998 13.979516983032227 0
			vertex -15.838583946228027 14.271812438964844 5
		endloop
	endfacet
	facet normal 0.5956986715871776 0.8032080008747873 0
		outer loop
			vertex -15.838583946228027 14.271812438964844 5
			vertex -15.44446849822998 13.979516983032227 0
			vertex -15.838583946228027 14.271812438964844 0
		endloop
	endfacet
	facet normal 0.5141032675639056 0.8577282963037394 0
		outer loop
			vertex -15.838583946228027 14.271812438964844 5
			vertex -15.838583946228027 14.271812438964844 0
			vertex -16.259450912475586 14.524070739746094 5
		endloop
	endfacet
	facet normal 0.5141032675639056 0.8577282963037394 0
		outer loop
			vertex -16.259450912475586 14.524070739746094 5
			vertex -15.838583946228027 14.271812438964844 0
			vertex -16.259450912475586 14.524070739746094 0
		endloop
	endfacet
	facet normal 0.4275542376992115 0.903989697853602 0
		outer loop
			vertex -16.259450912475586 14.524070739746094 5
			vertex -16.259450912475586 14.524070739746094 0
			vertex -16.703018188476562 14.733861923217773 5
		endloop
	endfacet
	facet normal 0.4275542376992115 0.903989697853602 0
		outer loop
			vertex -16.703018188476562 14.733861923217773 5
			vertex -16.259450912475586 14.524070739746094 0
			vertex -16.703018188476562 14.733861923217773 0
		endloop
	endfacet
	facet normal 0.33688990092857224 0.9415440481742406 0
		outer loop
			vertex -16.703018188476562 14.733861923217773 5
			vertex -16.703018188476562 14.733861923217773 0
			vertex -17.16501235961914 14.899166107177734 5
		endloop
	endfacet
	facet normal 0.33688990092857224 0.9415440481742406 0
		outer loop
			vertex -17.16501235961914 14.899166107177734 5
			vertex -16.703018188476562 14.733861923217773 0
			vertex -17.16501235961914 14.899166107177734 0
		endloop
	endfacet
	facet normal 0.24298011052461796 0.9700312705729877 0
		outer loop
			vertex -17.16501235961914 14.899166107177734 5
			vertex -17.16501235961914 14.899166107177734 0
			vertex -17.64098358154297 15.018390655517578 5
		endloop
	endfacet
	facet normal 0.24298011052461796 0.9700312705729877 0
		outer loop
			vertex -17.64098358154297 15.018390655517578 5
			vertex -17.16501235961914 14.899166107177734 0
			vertex -17.64098358154297 15.018390655517578 0
		endloop
	endfacet
	facet normal 0.14673102435947605 0.989176428394055 0
		outer loop
			vertex -17.64098358154297 15.018390655517578 5
			vertex -17.64098358154297 15.018390655517578 0
			vertex -18.12635040283203 15.090388298034668 5
		endloop
	endfacet
	facet normal 0.14673102435947605 0.989176428394055 0
		outer loop
			vertex -18.12635040283203 15.090388298034668 5
			vertex -17.64098358154297 15.018390655517578 0
			vertex -18.12635040283203 15.090388298034668 0
		endloop
	endfacet
	facet normal 0.04906787775457376 0.9987954462114164 0
		outer loop
			vertex -18.12635040283203 15.090388298034668 5
			vertex -18.12635040283203 15.090388298034668 0
			vertex -18.616436004638672 15.11446475982666 5
		endloop
	endfacet
	facet normal 0.04906787775457376 0.9987954462114164 0
		outer loop
			vertex -18.616436004638672 15.11446475982666 5
			vertex -18.12635040283203 15.090388298034668 0
			vertex -18.616436004638672 15.11446475982666 0
		endloop
	endfacet
	facet normal 0 -1 0
		outer loop
			vertex -23.616436004638672 10.11446475982666 0
			vertex -13.616436004638672 10.11446475982666 0
			vertex -23.616436004638672 10.11446475982666 5
		endloop
	endfacet
	facet normal 0 -1 0
		outer loop
			vertex -23.616436004638672 10.11446475982666 5
			vertex -13.616436004638672 10.11446475982666 0
			vertex -13.616436004638672 10.11446475982666 5
		endloop
	endfacet
	facet normal 0 0 1
		outer loop
			vertex -13.616436004638672 10.11446475982666 5
			vertex -13.640510559082031 10.604549407958984 5
			vertex -23.616436004638672 10.11446475982666 5
		endloop
	endfacet
	facet normal 0 0 1
		outer loop
			vertex -23.616436004638672 10.11446475982666 5
			vertex -13.640510559082031 10.604549407958984 5
			vertex -13.712509155273438 11.089916229248047 5
		endloop
	endfacet
	facet normal 0 0 1
		outer loop
			vertex -23.616436004638672 10.11446475982666 5
			vertex -13.712509155273438 11.089916229248047 5
			vertex -13.831733703613281 11.565887451171875 5
		endloop
	endfacet
	facet normal 0 0 1
		outer loop
			vertex -13.831733703613281 11.565887451171875 5
			vertex -13.997037887573242 12.027881622314453 5
			vertex -23.616436004638672 10.11446475982666 5
		endloop
	endfacet
	facet normal 0 0 1
		outer loop
			vertex -23.616436004638672 10.11446475982666 5
			vertex -13.997037887573242 12.027881622314453 5
			vertex -14.206829071044922 12.471447944641113 5
		endloop
	endfacet
	facet normal 0 0 1
		outer loop
			vertex -23.616436004638672 10.11446475982666 5
			vertex -14.206829071044922 12.471447944641113 5
			vertex -14.459086418151855 12.892314910888672 5
		endloop
	endfacet
	facet normal 0 0 1
		outer loop
			vertex -14.459086418151855 12.892314910888672 5
			vertex -14.751382827758789 13.286430358886719 5
			vertex -23.616436004638672 10.11446475982666 5
		endloop
	endfacet
	facet normal 0 0 1
		outer loop
			vertex -23.616436004638672 10.11446475982666 5
			vertex -14.751382827758789 13.286430358886719 5
			vertex -15.080901145935059 13.64999771118164 5
		endloop
	endfacet
	facet normal 0 0 1
		outer loop
			vertex -23.616436004638672 10.11446475982666 5
			vertex -15.080901145935059 13.64999771118164 5
			vertex -18.616436004638672 15.11446475982666 5
		endloop
	endfacet
	facet normal 0 0 1
		outer loop
			vertex -18.616436004638672 15.11446475982666 5
			vertex -15.080901145935059 13.64999771118164 5
			vertex -15.44446849822998 13.979516983032227 5
		endloop
	endfacet
	facet normal 0 0 1
		outer loop
			vertex -18.616436004638672 15.11446475982666 5
			vertex -15.44446849822998 13.979516983032227 5
			vertex -15.838583946228027 14.271812438964844 5
		endloop
	endfacet
	facet normal 0 0 1
		outer loop
			vertex -15.838583946228027 14.271812438964844 5
			vertex -16.259450912475586 14.524070739746094 5
			vertex -18.616436004638672 15.11446475982666 5
		endloop
	endfacet
	facet normal 0 0 1
		outer loop
			vertex -18.616436004638672 15.11446475982666 5
			vertex -16.259450912475586 14.524070739746094 5
			vertex -16.703018188476562 14.733861923217773 5
		endloop
	endfacet
	facet normal 0 0 1
		outer loop
			vertex -18.616436004638672 15.11446475982666 5
			vertex -16.703018188476562 14.733861923217773 5
			vertex -17.16501235961914 14.899166107177734 5
		endloop
	endfacet
	facet normal 0 0 1
		outer loop
			vertex -17.16501235961914 14.899166107177734 5
			vertex -17.64098358154297 15.018390655517578 5
			vertex -18.616436004638672 15.11446475982666 5
		endloop
	endfacet
	facet normal 0 0 1
		outer loop
			vertex -18.616436004638672 15.11446475982666 5
			vertex -17.64098358154297 15.018390655517578 5
			vertex -18.12635040283203 15.090388298034668 5
		endloop
	endfacet
	facet normal 0 0 1
		outer loop
			vertex -18.616436004638672 15.11446475982666 5
			vertex -23.616436004638672 15.11446475982666 5
			vertex -23.616436004638672 10.11446475982666 5
		endloop
	endfacet
	facet normal 0 0 -1
		outer loop
			vertex -13.616436004638672 10.11446475982666 0
			vertex -23.616436004638672 10.11446475982666 0
			vertex -13.640510559082031 10.604549407958984 0
		endloop
	endfacet
	facet normal 0 0 -1
		outer loop
			vertex -13.640510559082031 10.604549407958984 0
			vertex -23.616436004638672 10.11446475982666 0
			vertex -13.712509155273438 11.089916229248047 0
		endloop
	endfacet
	facet normal 0 0 -1
		outer loop
			vertex -13.712509155273438 11.089916229248047 0
			vertex -23.616436004638672 10.11446475982666 0
			vertex -13.831733703613281 11.565887451171875 0
		endloop
	endfacet
	facet normal 0 0 -1
		outer loop
			vertex -13.831733703613281 11.565887451171875 0
			vertex -23.616436004638672 10.11446475982666 0
			vertex -13.997037887573242 12.027881622314453 0
		endloop
	endfacet
	facet normal 0 0 -1
		outer loop
			vertex -13.997037887573242 12.027881622314453 0
			vertex -23.616436004638672 10.11446475982666 0
			vertex -14.206829071044922 12.471447944641113 0
		endloop
	endfacet
	facet normal 0 0 -1
		outer loop
			vertex -14.206829071044922 12.471447944641113 0
			vertex -23.616436004638672 10.11446475982666 0
			vertex -14.459086418151855 12.892314910888672 0
		endloop
	endfacet
	facet normal 0 0 -1
		outer loop
			vertex -14.459086418151855 12.892314910888672 0
			vertex -23.616436004638672 10.11446475982666 0
			vertex -14.751382827758789 13.286430358886719 0
		endloop
	endfacet
	facet normal 0 0 -1
		outer loop
			vertex -14.751382827758789 13.286430358886719 0
			vertex -23.616436004638672 10.11446475982666 0
			vertex -15.080901145935059 13.64999771118164 0
		endloop
	endfacet
	facet normal 0 0 -1
		outer loop
			vertex -15.080901145935059 13.64999771118164 0
			vertex -23.616436004638672 10.11446475982666 0
			vertex -18.616436004638672 15.11446475982666 0
		endloop
	endfacet
	facet normal 0 0 -1
		outer loop
			vertex -15.080901145935059 13.64999771118164 0
			vertex -18.616436004638672 15.11446475982666 0
			vertex -15.44446849822998 13.979516983032227 0
		endloop
	endfacet
	facet normal 0 0 -1
		outer loop
			vertex -15.44446849822998 13.979516983032227 0
			vertex -18.616436004638672 15.11446475982666 0
			vertex -15.838583946228027 14.271812438964844 0
		endloop
	endfacet
	facet normal 0 0 -1
		outer loop
			vertex -15.838583946228027 14.271812438964844 0
			vertex -18.616436004638672 15.11446475982666 0
			vertex -16.259450912475586 14.524070739746094 0
		endloop
	endfacet
	facet normal 0 0 -1
		outer loop
			vertex -16.259450912475586 14.524070739746094 0
			vertex -18.616436004638672 15.11446475982666 0
			vertex -16.703018188476562 14.733861923217773 0
		endloop
	endfacet
	facet normal 0 0 -1
		outer loop
			vertex -16.703018188476562 14.733861923217773 0
			vertex -18.616436004638672 15.11446475982666 0
			vertex -17.16501235961914 14.899166107177734 0
		endloop
	endfacet
	facet normal 0 0 -1
		outer loop
			vertex -17.16501235961914 14.899166107177734 0
			vertex -18.616436004638672 15.11446475982666 0
			vertex -17.64098358154297 15.018390655517578 0
		endloop
	endfacet
	facet normal 0 0 -1
		outer loop
			vertex -17.64098358154297 15.018390655517578 0
			vertex -18.616436004638672 15.11446475982666 0
			vertex -18.12635040283203 15.090388298034668 0
		endloop
	endfacet
	facet normal 0 0 -1
		outer loop
			vertex -23.616436004638672 10.11446475982666 0
			vertex -23.616436004638672 15.11446475982666 0
			vertex -18.616436004638672 15.11446475982666 0
		endloop
	endfacet
endsolid exported
