solid exported
	facet normal -0.9991457991222475 0 0.0413239893568543
		outer loop
			vertex 30.022830963134766 11.735591888427734 0
			vertex 30.022830963134766 5.735591888427734 0
			vertex 30.043323516845703 11.735591888427734 0.495476096868515
		endloop
	endfacet
	facet normal -0.9991457991222475 0 0.0413239893568543
		outer loop
			vertex 30.043323516845703 11.735591888427734 0.495476096868515
			vertex 30.022830963134766 5.735591888427734 0
			vertex 30.043323516845703 5.735591888427734 0.495476096868515
		endloop
	endfacet
	facet normal -0.9923202834295693 0 0.12369500836436166
		outer loop
			vertex 30.043323516845703 11.735591888427734 0.495476096868515
			vertex 30.043323516845703 5.735591888427734 0.495476096868515
			vertex 30.104663848876953 11.735591888427734 0.9875675439834595
		endloop
	endfacet
	facet normal -0.9923202834295693 0 0.12369500836436166
		outer loop
			vertex 30.104663848876953 11.735591888427734 0.9875675439834595
			vertex 30.043323516845703 5.735591888427734 0.495476096868515
			vertex 30.104663848876953 5.735591888427734 0.9875675439834595
		endloop
	endfacet
	facet normal -0.9787174699186242 0 0.205212363360708
		outer loop
			vertex 30.104663848876953 11.735591888427734 0.9875675439834595
			vertex 30.104663848876953 5.735591888427734 0.9875675439834595
			vertex 30.20642852783203 11.735591888427734 1.4729129076004028
		endloop
	endfacet
	facet normal -0.9787174699186242 0 0.205212363360708
		outer loop
			vertex 30.20642852783203 11.735591888427734 1.4729129076004028
			vertex 30.104663848876953 5.735591888427734 0.9875675439834595
			vertex 30.20642852783203 5.735591888427734 1.4729129076004028
		endloop
	endfacet
	facet normal -0.9584272651527408 0 0.285336954164437
		outer loop
			vertex 30.20642852783203 11.735591888427734 1.4729129076004028
			vertex 30.20642852783203 5.735591888427734 1.4729129076004028
			vertex 30.34792709350586 11.735591888427734 1.9481968879699707
		endloop
	endfacet
	facet normal -0.9584272651527408 0 0.285336954164437
		outer loop
			vertex 30.34792709350586 11.735591888427734 1.9481968879699707
			vertex 30.20642852783203 5.735591888427734 1.4729129076004028
			vertex 30.34792709350586 5.735591888427734 1.9481968879699707
		endloop
	endfacet
	facet normal -0.9315910260851791 0 0.3635081293692939
		outer loop
			vertex 30.34792709350586 11.735591888427734 1.9481968879699707
			vertex 30.34792709350586 5.735591888427734 1.9481968879699707
			vertex 30.52819061279297 11.735591888427734 2.410172462463379
		endloop
	endfacet
	facet normal -0.9315910260851791 0 0.3635081293692939
		outer loop
			vertex 30.52819061279297 11.735591888427734 2.410172462463379
			vertex 30.34792709350586 5.735591888427734 1.9481968879699707
			vertex 30.52819061279297 5.735591888427734 2.410172462463379
		endloop
	endfacet
	facet normal -0.8983919743177259 0 0.4391945588022452
		outer loop
			vertex 30.52819061279297 11.735591888427734 2.410172462463379
			vertex 30.52819061279297 5.735591888427734 2.410172462463379
			vertex 30.745986938476562 11.735591888427734 2.855684518814087
		endloop
	endfacet
	facet normal -0.8983919743177259 0 0.4391945588022452
		outer loop
			vertex 30.745986938476562 11.735591888427734 2.855684518814087
			vertex 30.52819061279297 5.735591888427734 2.410172462463379
			vertex 30.745986938476562 5.735591888427734 2.855684518814087
		endloop
	endfacet
	facet normal -0.8590524603197933 0 0.511887556420851
		outer loop
			vertex 30.745986938476562 11.735591888427734 2.855684518814087
			vertex 30.745986938476562 5.735591888427734 2.855684518814087
			vertex 30.999832153320312 11.735591888427734 3.281688928604126
		endloop
	endfacet
	facet normal -0.8590524603197933 0 0.511887556420851
		outer loop
			vertex 30.999832153320312 11.735591888427734 3.281688928604126
			vertex 30.745986938476562 5.735591888427734 2.855684518814087
			vertex 30.999832153320312 5.735591888427734 3.281688928604126
		endloop
	endfacet
	facet normal -0.8138498817324471 0 0.5810751844676231
		outer loop
			vertex 30.999832153320312 11.735591888427734 3.281688928604126
			vertex 30.999832153320312 5.735591888427734 3.281688928604126
			vertex 31.287986755371094 11.735591888427734 3.6852762699127197
		endloop
	endfacet
	facet normal -0.8138498817324471 0 0.5810751844676231
		outer loop
			vertex 31.287986755371094 11.735591888427734 3.6852762699127197
			vertex 30.999832153320312 5.735591888427734 3.281688928604126
			vertex 31.287986755371094 5.735591888427734 3.6852762699127197
		endloop
	endfacet
	facet normal -0.7630840779945064 0 0.6462992262963605
		outer loop
			vertex 31.287986755371094 11.735591888427734 3.6852762699127197
			vertex 31.287986755371094 5.735591888427734 3.6852762699127197
			vertex 31.60848617553711 11.735591888427734 4.063689231872559
		endloop
	endfacet
	facet normal -0.7630840779945064 0 0.6462992262963605
		outer loop
			vertex 31.60848617553711 11.735591888427734 4.063689231872559
			vertex 31.287986755371094 5.735591888427734 3.6852762699127197
			vertex 31.60848617553711 5.735591888427734 4.063689231872559
		endloop
	endfacet
	facet normal -0.7071063004069856 0 0.7071072619657827
		outer loop
			vertex 31.60848617553711 11.735591888427734 4.063689231872559
			vertex 31.60848617553711 5.735591888427734 4.063689231872559
			vertex 31.95914077758789 11.735591888427734 4.414343357086182
		endloop
	endfacet
	facet normal -0.7071063004069856 0 0.7071072619657827
		outer loop
			vertex 31.95914077758789 11.735591888427734 4.414343357086182
			vertex 31.60848617553711 5.735591888427734 4.063689231872559
			vertex 31.95914077758789 5.735591888427734 4.414343357086182
		endloop
	endfacet
	facet normal -0.6462986006543887 0 0.7630846078857698
		outer loop
			vertex 31.95914077758789 11.735591888427734 4.414343357086182
			vertex 31.95914077758789 5.735591888427734 4.414343357086182
			vertex 32.337554931640625 11.735591888427734 4.7348432540893555
		endloop
	endfacet
	facet normal -0.6462986006543887 0 0.7630846078857698
		outer loop
			vertex 32.337554931640625 11.735591888427734 4.7348432540893555
			vertex 31.95914077758789 5.735591888427734 4.414343357086182
			vertex 32.337554931640625 5.735591888427734 4.7348432540893555
		endloop
	endfacet
	facet normal -0.5810764582485362 0 0.8138489722727047
		outer loop
			vertex 32.337554931640625 11.735591888427734 4.7348432540893555
			vertex 32.337554931640625 5.735591888427734 4.7348432540893555
			vertex 32.74114227294922 11.735591888427734 5.022998809814453
		endloop
	endfacet
	facet normal -0.5810764582485362 0 0.8138489722727047
		outer loop
			vertex 32.74114227294922 11.735591888427734 5.022998809814453
			vertex 32.337554931640625 5.735591888427734 4.7348432540893555
			vertex 32.74114227294922 5.735591888427734 5.022998809814453
		endloop
	endfacet
	facet normal -0.5118871189477502 0 0.8590527209987592
		outer loop
			vertex 32.74114227294922 11.735591888427734 5.022998809814453
			vertex 32.74114227294922 5.735591888427734 5.022998809814453
			vertex 33.167144775390625 11.735591888427734 5.2768425941467285
		endloop
	endfacet
	facet normal -0.5118871189477502 0 0.8590527209987592
		outer loop
			vertex 33.167144775390625 11.735591888427734 5.2768425941467285
			vertex 32.74114227294922 5.735591888427734 5.022998809814453
			vertex 33.167144775390625 5.735591888427734 5.2768425941467285
		endloop
	endfacet
	facet normal -0.4391970594743382 0 0.8983907518163213
		outer loop
			vertex 33.167144775390625 11.735591888427734 5.2768425941467285
			vertex 33.167144775390625 5.735591888427734 5.2768425941467285
			vertex 33.61265563964844 11.735591888427734 5.494639873504639
		endloop
	endfacet
	facet normal -0.4391970594743382 0 0.8983907518163213
		outer loop
			vertex 33.61265563964844 11.735591888427734 5.494639873504639
			vertex 33.167144775390625 5.735591888427734 5.2768425941467285
			vertex 33.61265563964844 5.735591888427734 5.494639873504639
		endloop
	endfacet
	facet normal -0.3635058500176979 0 0.9315919154881664
		outer loop
			vertex 33.61265563964844 11.735591888427734 5.494639873504639
			vertex 33.61265563964844 5.735591888427734 5.494639873504639
			vertex 34.07463455200195 11.735591888427734 5.674903392791748
		endloop
	endfacet
	facet normal -0.3635058500176979 0 0.9315919154881664
		outer loop
			vertex 34.07463455200195 11.735591888427734 5.674903392791748
			vertex 33.61265563964844 5.735591888427734 5.494639873504639
			vertex 34.07463455200195 5.735591888427734 5.674903392791748
		endloop
	endfacet
	facet normal -0.2853366254621011 0 0.9584273630118773
		outer loop
			vertex 34.07463455200195 11.735591888427734 5.674903392791748
			vertex 34.07463455200195 5.735591888427734 5.674903392791748
			vertex 34.54991912841797 11.735591888427734 5.816401958465576
		endloop
	endfacet
	facet normal -0.2853366254621011 0 0.9584273630118773
		outer loop
			vertex 34.54991912841797 11.735591888427734 5.816401958465576
			vertex 34.07463455200195 5.735591888427734 5.674903392791748
			vertex 34.54991912841797 5.735591888427734 5.816401958465576
		endloop
	endfacet
	facet normal -0.20521570594154656 0 0.9787167690577866
		outer loop
			vertex 34.54991912841797 11.735591888427734 5.816401958465576
			vertex 34.54991912841797 5.735591888427734 5.816401958465576
			vertex 35.03526306152344 11.735591888427734 5.918168067932129
		endloop
	endfacet
	facet normal -0.20521570594154656 0 0.9787167690577866
		outer loop
			vertex 35.03526306152344 11.735591888427734 5.918168067932129
			vertex 34.54991912841797 5.735591888427734 5.816401958465576
			vertex 35.03526306152344 5.735591888427734 5.918168067932129
		endloop
	endfacet
	facet normal -0.12369294235902299 0 0.9923205409597081
		outer loop
			vertex 35.03526306152344 11.735591888427734 5.918168067932129
			vertex 35.03526306152344 5.735591888427734 5.918168067932129
			vertex 35.52735137939453 11.735591888427734 5.979506969451904
		endloop
	endfacet
	facet normal -0.12369294235902299 0 0.9923205409597081
		outer loop
			vertex 35.52735137939453 11.735591888427734 5.979506969451904
			vertex 35.03526306152344 5.735591888427734 5.918168067932129
			vertex 35.52735137939453 5.735591888427734 5.979506969451904
		endloop
	endfacet
	facet normal -0.041324658952264004 0 0.9991457714280131
		outer loop
			vertex 35.52735137939453 11.735591888427734 5.979506969451904
			vertex 35.52735137939453 5.735591888427734 5.979506969451904
			vertex 36.022830963134766 11.735591888427734 6
		endloop
	endfacet
	facet normal -0.041324658952264004 0 0.9991457714280131
		outer loop
			vertex 36.022830963134766 11.735591888427734 6
			vertex 35.52735137939453 5.735591888427734 5.979506969451904
			vertex 36.022830963134766 5.735591888427734 6
		endloop
	endfacet
	facet normal 0 -1 0
		outer loop
			vertex 36.022830963134766 5.735591888427734 6
			vertex 35.52735137939453 5.735591888427734 5.979506969451904
			vertex 36.022830963134766 5.735591888427734 0
		endloop
	endfacet
	facet normal 0 -1 0
		outer loop
			vertex 36.022830963134766 5.735591888427734 0
			vertex 35.52735137939453 5.735591888427734 5.979506969451904
			vertex 35.03526306152344 5.735591888427734 5.918168067932129
		endloop
	endfacet
	facet normal 0 -1 0
		outer loop
			vertex 36.022830963134766 5.735591888427734 0
			vertex 35.03526306152344 5.735591888427734 5.918168067932129
			vertex 34.54991912841797 5.735591888427734 5.816401958465576
		endloop
	endfacet
	facet normal 0 -1 0
		outer loop
			vertex 34.54991912841797 5.735591888427734 5.816401958465576
			vertex 34.07463455200195 5.735591888427734 5.674903392791748
			vertex 36.022830963134766 5.735591888427734 0
		endloop
	endfacet
	facet normal 0 -1 0
		outer loop
			vertex 36.022830963134766 5.735591888427734 0
			vertex 34.07463455200195 5.735591888427734 5.674903392791748
			vertex 33.61265563964844 5.735591888427734 5.494639873504639
		endloop
	endfacet
	facet normal 0 -1 0
		outer loop
			vertex 36.022830963134766 5.735591888427734 0
			vertex 33.61265563964844 5.735591888427734 5.494639873504639
			vertex 33.167144775390625 5.735591888427734 5.2768425941467285
		endloop
	endfacet
	facet normal 0 -1 0
		outer loop
			vertex 33.167144775390625 5.735591888427734 5.2768425941467285
			vertex 32.74114227294922 5.735591888427734 5.022998809814453
			vertex 36.022830963134766 5.735591888427734 0
		endloop
	endfacet
	facet normal 0 -1 0
		outer loop
			vertex 36.022830963134766 5.735591888427734 0
			vertex 32.74114227294922 5.735591888427734 5.022998809814453
			vertex 32.337554931640625 5.735591888427734 4.7348432540893555
		endloop
	endfacet
	facet normal 0 -1 0
		outer loop
			vertex 36.022830963134766 5.735591888427734 0
			vertex 32.337554931640625 5.735591888427734 4.7348432540893555
			vertex 31.95914077758789 5.735591888427734 4.414343357086182
		endloop
	endfacet
	facet normal 0 -1 0
		outer loop
			vertex 31.95914077758789 5.735591888427734 4.414343357086182
			vertex 31.60848617553711 5.735591888427734 4.063689231872559
			vertex 36.022830963134766 5.735591888427734 0
		endloop
	endfacet
	facet normal 0 -1 0
		outer loop
			vertex 36.022830963134766 5.735591888427734 0
			vertex 31.60848617553711 5.735591888427734 4.063689231872559
			vertex 31.287986755371094 5.735591888427734 3.6852762699127197
		endloop
	endfacet
	facet normal 0 -1 0
		outer loop
			vertex 36.022830963134766 5.735591888427734 0
			vertex 31.287986755371094 5.735591888427734 3.6852762699127197
			vertex 30.999832153320312 5.735591888427734 3.281688928604126
		endloop
	endfacet
	facet normal 0 -1 0
		outer loop
			vertex 30.999832153320312 5.735591888427734 3.281688928604126
			vertex 30.745986938476562 5.735591888427734 2.855684518814087
			vertex 36.022830963134766 5.735591888427734 0
		endloop
	endfacet
	facet normal 0 -1 0
		outer loop
			vertex 36.022830963134766 5.735591888427734 0
			vertex 30.745986938476562 5.735591888427734 2.855684518814087
			vertex 30.52819061279297 5.735591888427734 2.410172462463379
		endloop
	endfacet
	facet normal 0 -1 0
		outer loop
			vertex 36.022830963134766 5.735591888427734 0
			vertex 30.52819061279297 5.735591888427734 2.410172462463379
			vertex 30.34792709350586 5.735591888427734 1.9481968879699707
		endloop
	endfacet
	facet normal 0 -1 0
		outer loop
			vertex 30.34792709350586 5.735591888427734 1.9481968879699707
			vertex 30.20642852783203 5.735591888427734 1.4729129076004028
			vertex 36.022830963134766 5.735591888427734 0
		endloop
	endfacet
	facet normal 0 -1 0
		outer loop
			vertex 36.022830963134766 5.735591888427734 0
			vertex 30.20642852783203 5.735591888427734 1.4729129076004028
			vertex 30.104663848876953 5.735591888427734 0.9875675439834595
		endloop
	endfacet
	facet normal 0 -1 0
		outer loop
			vertex 36.022830963134766 5.735591888427734 0
			vertex 30.104663848876953 5.735591888427734 0.9875675439834595
			vertex 30.043323516845703 5.735591888427734 0.495476096868515
		endloop
	endfacet
	facet normal 0 -1 0
		outer loop
			vertex 30.043323516845703 5.735591888427734 0.495476096868515
			vertex 30.022830963134766 5.735591888427734 0
			vertex 36.022830963134766 5.735591888427734 0
		endloop
	endfacet
	facet normal 0 1 0
		outer loop
			vertex 30.022830963134766 11.735591888427734 0
			vertex 30.043323516845703 11.735591888427734 0.495476096868515
			vertex 36.022830963134766 11.735591888427734 0
		endloop
	endfacet
	facet normal 0 1 0
		outer loop
			vertex 36.022830963134766 11.735591888427734 0
			vertex 30.043323516845703 11.735591888427734 0.495476096868515
			vertex 30.104663848876953 11.735591888427734 0.9875675439834595
		endloop
	endfacet
	facet normal 0 1 0
		outer loop
			vertex 36.022830963134766 11.735591888427734 0
			vertex 30.104663848876953 11.735591888427734 0.9875675439834595
			vertex 30.20642852783203 11.735591888427734 1.4729129076004028
		endloop
	endfacet
	facet normal 0 1 0
		outer loop
			vertex 30.20642852783203 11.735591888427734 1.4729129076004028
			vertex 30.34792709350586 11.735591888427734 1.9481968879699707
			vertex 36.022830963134766 11.735591888427734 0
		endloop
	endfacet
	facet normal 0 1 0
		outer loop
			vertex 36.022830963134766 11.735591888427734 0
			vertex 30.34792709350586 11.735591888427734 1.9481968879699707
			vertex 30.52819061279297 11.735591888427734 2.410172462463379
		endloop
	endfacet
	facet normal 0 1 0
		outer loop
			vertex 36.022830963134766 11.735591888427734 0
			vertex 30.52819061279297 11.735591888427734 2.410172462463379
			vertex 30.745986938476562 11.735591888427734 2.855684518814087
		endloop
	endfacet
	facet normal 0 1 0
		outer loop
			vertex 30.745986938476562 11.735591888427734 2.855684518814087
			vertex 30.999832153320312 11.735591888427734 3.281688928604126
			vertex 36.022830963134766 11.735591888427734 0
		endloop
	endfacet
	facet normal 0 1 0
		outer loop
			vertex 36.022830963134766 11.735591888427734 0
			vertex 30.999832153320312 11.735591888427734 3.281688928604126
			vertex 31.287986755371094 11.735591888427734 3.6852762699127197
		endloop
	endfacet
	facet normal 0 1 0
		outer loop
			vertex 36.022830963134766 11.735591888427734 0
			vertex 31.287986755371094 11.735591888427734 3.6852762699127197
			vertex 31.60848617553711 11.735591888427734 4.063689231872559
		endloop
	endfacet
	facet normal 0 1 0
		outer loop
			vertex 31.60848617553711 11.735591888427734 4.063689231872559
			vertex 31.95914077758789 11.735591888427734 4.414343357086182
			vertex 36.022830963134766 11.735591888427734 0
		endloop
	endfacet
	facet normal 0 1 0
		outer loop
			vertex 36.022830963134766 11.735591888427734 0
			vertex 31.95914077758789 11.735591888427734 4.414343357086182
			vertex 32.337554931640625 11.735591888427734 4.7348432540893555
		endloop
	endfacet
	facet normal 0 1 0
		outer loop
			vertex 36.022830963134766 11.735591888427734 0
			vertex 32.337554931640625 11.735591888427734 4.7348432540893555
			vertex 32.74114227294922 11.735591888427734 5.022998809814453
		endloop
	endfacet
	facet normal 0 1 0
		outer loop
			vertex 32.74114227294922 11.735591888427734 5.022998809814453
			vertex 33.167144775390625 11.735591888427734 5.2768425941467285
			vertex 36.022830963134766 11.735591888427734 0
		endloop
	endfacet
	facet normal 0 1 0
		outer loop
			vertex 36.022830963134766 11.735591888427734 0
			vertex 33.167144775390625 11.735591888427734 5.2768425941467285
			vertex 33.61265563964844 11.735591888427734 5.494639873504639
		endloop
	endfacet
	facet normal 0 1 0
		outer loop
			vertex 36.022830963134766 11.735591888427734 0
			vertex 33.61265563964844 11.735591888427734 5.494639873504639
			vertex 34.07463455200195 11.735591888427734 5.674903392791748
		endloop
	endfacet
	facet normal 0 1 0
		outer loop
			vertex 34.07463455200195 11.735591888427734 5.674903392791748
			vertex 34.54991912841797 11.735591888427734 5.816401958465576
			vertex 36.022830963134766 11.735591888427734 0
		endloop
	endfacet
	facet normal 0 1 0
		outer loop
			vertex 36.022830963134766 11.735591888427734 0
			vertex 34.54991912841797 11.735591888427734 5.816401958465576
			vertex 35.03526306152344 11.735591888427734 5.918168067932129
		endloop
	endfacet
	facet normal 0 1 0
		outer loop
			vertex 36.022830963134766 11.735591888427734 0
			vertex 35.03526306152344 11.735591888427734 5.918168067932129
			vertex 35.52735137939453 11.735591888427734 5.979506969451904
		endloop
	endfacet
	facet normal 0 1 0
		outer loop
			vertex 35.52735137939453 11.735591888427734 5.979506969451904
			vertex 36.022830963134766 11.735591888427734 6
			vertex 36.022830963134766 11.735591888427734 0
		endloop
	endfacet
	facet normal 1 0 0
		outer loop
			vertex 36.022830963134766 5.735591888427734 0
			vertex 36.022830963134766 11.735591888427734 0
			vertex 36.022830963134766 5.735591888427734 6
		endloop
	endfacet
	facet normal 1 0 0
		outer loop
			vertex 36.022830963134766 5.735591888427734 6
			vertex 36.022830963134766 11.735591888427734 0
			vertex 36.022830963134766 11.735591888427734 6
		endloop
	endfacet
	facet normal 0 0 -1
		outer loop
			vertex 36.022830963134766 5.735591888427734 0
			vertex 30.022830963134766 5.735591888427734 0
			vertex 36.022830963134766 11.735591888427734 0
		endloop
	endfacet
	facet normal 0 0 -1
		outer loop
			vertex 36.022830963134766 11.735591888427734 0
			vertex 30.022830963134766 5.735591888427734 0
			vertex 30.022830963134766 11.735591888427734 0
		endloop
	endfacet
endsolid exported
